<svg width="32" height="32" viewBox="0 0 32 32" fill="none" xmlns="http://www.w3.org/2000/svg">
  <circle cx="16" cy="16" r="16" fill="black"/>
  <path d="M14.1138 26V23.6078C9.14371 23.3853 6 20.5202 6 16.0139C6 11.5076 9.20359 8.61474 14.1138 8.39221V6H17.9162V8.39221C22.7964 8.61474 26 11.5076 26 16.0139C26 20.5202 22.8862 23.3853 17.9162 23.6078V26H14.1138ZM14.1138 20.3811V11.5911C11.5689 11.8136 10.0419 13.427 10.0419 15.9861C10.0419 18.5452 11.5689 20.2142 14.1138 20.3811ZM17.9162 20.3811C20.491 20.2142 21.9581 18.5452 21.9581 15.9861C21.9581 13.427 20.491 11.8136 17.9162 11.5911V20.3811Z" fill="white"/>
</svg>
