<svg xmlns="http://www.w3.org/2000/svg" fill="none" viewBox="0 0 194 256">
  <title>Phi</title>
  <path fill="#fff" d="M75.039 0v6.67C47.74 13.711 34.09 39.527 34.09 84.12c0 48.297 16.985 76.708 50.954 85.23V61.7c0-15.687.988-27.113 2.965-34.278 1.977-7.288 6.3-13.649 12.97-19.084C107.774 2.78 115.927.001 125.438.001c16.676 0 32.116 7.843 46.321 23.53 14.329 15.688 21.493 36.13 21.493 61.33 0 23.592-7.349 44.653-22.048 63.182-14.576 18.528-36.625 29.09-66.147 31.684v76.152H85.046v-76.152c-25.693-2.224-46.321-11.797-61.885-28.719C7.721 133.962 0 111.851 0 84.676c0-24.458 7.041-44.407 21.123-59.847C35.205 9.265 53.178.989 75.041 0h-.002Zm30.016 169.35c38.91-5.806 58.365-30.943 58.365-75.411 0-20.505-4.2-37.674-12.599-51.509-8.276-13.958-18.034-20.937-29.275-20.937-4.076 0-7.535 1.482-10.376 4.447-2.717 2.84-4.447 6.238-5.191 10.19-.618 3.953-.927 11.735-.927 23.347l.003 109.873Z"/>
</svg>
